<?xml version="1.0" encoding="UTF-8"?>
<svg width="180px" height="79px" viewBox="0 0 180 79" version="1.1" xmlns="http://www.w3.org/2000/svg" xmlns:xlink="http://www.w3.org/1999/xlink">
    <!-- Generator: Sketch 52.2 (67145) - http://www.bohemiancoding.com/sketch -->
    <title>COGNITIVA-LOGO</title>
    <desc>Created with Sketch.</desc>
    <g id="Page-1" stroke="none" stroke-width="1" fill="none" fill-rule="evenodd">
        <g id="LOGIN" transform="translate(-630.000000, -251.000000)" fill="#9F9F9F">
            <g id="FORM" transform="translate(554.000000, 251.000000)">
                <path d="M170.9482,18.98935 C170.5864,18.98935 170.263975,19.17475 170.0671,19.4533 C170.0554,19.4263 170.041225,19.409425 170.041225,19.379725 C170.034025,19.374325 170.034025,19.35115 170.034025,19.35115 L170.0266,19.2796 L170.034025,16.86265 C170.034025,16.820575 170.0266,16.7803 170.0266,16.7803 C170.019625,16.578025 169.97215,16.4041 169.8862,16.2538 C169.95235,16.126675 169.98385,15.97975 169.98385,15.82765 C169.98385,15.236575 169.5046,14.761825 168.90745,14.761825 C168.3148,14.761825 167.84185,15.236575 167.84185,15.82765 C167.84185,16.4167 168.3148,16.895725 168.90745,16.895725 C168.963025,16.895725 169.0114,16.895725 169.06045,16.88335 L169.06045,19.2796 L169.06045,19.379725 C169.066975,19.4533 169.075975,19.51405 169.08295,19.563325 C169.107025,19.69225 169.1572,19.822075 169.219075,19.942 C169.3507,20.174875 169.5523,20.371075 169.79665,20.4721 C169.854925,20.5108 169.933675,20.519575 170.001625,20.55085 C170.18365,20.888575 170.536225,21.12325 170.9482,21.12325 C171.541075,21.12325 172.0264,20.644 172.0264,20.06125 C172.0264,19.459375 171.541075,18.98935 170.9482,18.98935 Z M168.323575,12.152725 L168.516175,12.152725 C168.606625,12.152725 168.688075,12.142825 168.770425,12.12145 C168.963025,12.064075 169.132225,11.946625 169.233475,11.789125 C169.3507,11.6368 169.413475,11.439025 169.413475,11.257225 L169.413475,8.598625 C169.413475,8.57275 169.413475,8.55565 169.43125,8.536075 C169.44205,8.494 169.483225,8.4535 169.5136,8.436625 C169.5361,8.429425 169.562875,8.418625 169.61485,8.410525 L170.0266,8.410525 C170.2174,8.72125 170.555125,8.93365 170.9482,8.93365 C171.541075,8.93365 172.0264,8.4625 172.0264,7.86985 C172.0264,7.284175 171.541075,6.80335 170.9482,6.80335 C170.407525,6.80335 169.96045,7.2106 169.8862,7.719325 L169.58605,7.719325 C169.5361,7.719325 169.485025,7.7299 169.44205,7.7416 C169.3453,7.7542 169.26205,7.796275 169.1689,7.83655 C169.0042,7.9396 168.871675,8.095525 168.792925,8.266525 C168.75715,8.36485 168.73465,8.4535 168.72835,8.55205 L168.72835,8.6659 L168.72835,11.257225 C168.72835,11.3119 168.71575,11.348575 168.688075,11.38525 C168.6559,11.425525 168.623725,11.4478 168.57085,11.464 L168.499075,11.464 L168.364075,11.464 C168.235825,11.02165 167.827675,10.69045 167.334925,10.69045 C166.744075,10.69045 166.27135,11.164975 166.27135,11.75965 C166.27135,12.3523 166.744075,12.833125 167.334925,12.833125 C167.788075,12.833125 168.16855,12.5449 168.323575,12.152725 Z M214.716325,25.53055 C215.185675,25.89595 215.849425,25.8082 216.2173,25.34155 C216.5791,24.877825 216.502825,24.2008 216.0337,23.848 C215.56345,23.4826 214.884625,23.562475 214.52305,24.0352 C214.484575,24.09595 214.447,24.164125 214.4155,24.2206 L212.714275,24.2206 L212.6632,24.2206 C212.608525,24.2206 212.555875,24.227575 212.4922,24.242875 C212.39095,24.27235 212.282725,24.31825 212.190475,24.3952 C212.004175,24.519625 211.87435,24.7273 211.838575,24.947575 C211.8271,25.00405 211.8271,25.057825 211.8271,25.121275 L211.8271,25.20025 C211.66915,25.2718 211.54405,25.36225 211.4248,25.509175 C211.0702,25.9819 211.152775,26.637325 211.6201,27.0061 C212.089225,27.369925 212.76175,27.28465 213.112525,26.815525 C213.48265,26.3527 213.396475,25.682875 212.92825,25.314775 C212.789425,25.213525 212.6461,25.156375 212.4922,25.121275 L212.4922,25.1143 L212.4922,25.052425 C212.4985,25.00405 212.534275,24.960175 212.58445,24.9253 C212.60245,24.901 212.636425,24.8938 212.6461,24.885025 C212.6632,24.877825 212.6785,24.877825 212.6875,24.877825 L214.330675,24.877825 C214.36825,25.123075 214.50055,25.36225 214.716325,25.53055 Z M208.127875,41.454025 L208.127875,40.278625 L208.127875,40.1371 C208.126075,40.03405 208.1056,39.933025 208.0768,39.84685 C208.027525,39.647275 207.923575,39.465475 207.777775,39.33295 C207.63895,39.184225 207.46795,39.0778 207.27355,39.012325 C207.1705,38.98285 207.07645,38.96575 206.985325,38.96035 L206.895775,38.96035 C206.8456,38.7277 206.726575,38.5036 206.516875,38.3425 C206.04955,37.9879 205.36735,38.056075 205.005325,38.5261 C204.65095,38.99545 204.7351,39.66325 205.19905,40.03405 C205.67155,40.39225 206.339575,40.3171 206.696875,39.84685 C206.75245,39.7825 206.789125,39.714325 206.824,39.647275 L206.8681,39.647275 L206.93695,39.647275 C206.978125,39.647275 207.0229,39.66325 207.067675,39.67045 C207.143725,39.701725 207.216175,39.7519 207.28525,39.817375 C207.3532,39.87655 207.393475,39.955075 207.414175,40.03405 C207.43645,40.077925 207.44275,40.1263 207.44275,40.1263 L207.44275,41.485525 C206.1013,41.6905 205.0699,42.84925 205.0699,44.254375 C205.0699,45.8017 206.326075,47.054275 207.869125,47.054275 C209.419825,47.054275 210.68365,45.8017 210.68365,44.254375 C210.68365,42.7885 209.56225,41.59555 208.127875,41.454025 Z M211.02025,17.282725 C210.65125,17.75275 210.7372,18.418975 211.200025,18.784375 C211.66915,19.14865 212.345275,19.0645 212.6983,18.590875 C212.77795,18.492325 212.839825,18.3841 212.870875,18.26845 L215.480425,18.26845 C215.5207,18.26845 215.556475,18.28825 215.58955,18.312325 C215.628025,18.328525 215.6566,18.3652 215.6737,18.409075 C215.6809,18.418975 215.6809,18.440575 215.6809,18.440575 L215.6809,19.835575 C215.6809,19.86595 215.6809,19.897225 215.6881,19.930525 C215.707,20.103325 215.77225,20.277925 215.882275,20.41855 C215.993425,20.554675 216.151825,20.6647 216.321025,20.713975 C216.3973,20.73445 216.48505,20.74345 216.5791,20.74345 L218.880175,20.74345 C218.963425,20.74345 219.055,20.74345 219.11755,20.719375 C219.288775,20.6791 219.446275,20.58235 219.5626,20.449825 C219.675325,20.3164 219.7588,20.152375 219.787375,19.978675 L219.787375,19.851775 L219.787375,19.7935 C219.99595,19.732525 220.18495,19.6135 220.33165,19.4263 C220.69165,18.958075 220.603,18.28825 220.145575,17.92105 C219.675325,17.56375 219.002125,17.6497 218.639425,18.11455 C218.27785,18.587275 218.368075,19.2445 218.829325,19.6135 C218.909875,19.67875 219.002125,19.732525 219.10405,19.7638 L219.10405,19.88665 C219.09595,19.923325 219.078175,19.9618 219.055,20.000275 C219.0298,20.022775 218.985925,20.04415 218.95105,20.06125 C218.919775,20.06485 218.909875,20.07205 218.875,20.06485 L216.5791,20.06485 C216.5602,20.06485 216.540625,20.06485 216.517225,20.06125 C216.47605,20.04415 216.44185,20.022775 216.415075,19.991275 C216.395275,19.9546 216.374125,19.914325 216.374125,19.835575 L216.374125,18.501325 L216.374125,18.409075 C216.3586,18.312325 216.345325,18.233575 216.30685,18.139525 C216.2326,17.974825 216.12235,17.8351 215.983525,17.737675 C215.837725,17.6407 215.671,17.58535 215.474125,17.58535 L212.870875,17.58535 C212.803825,17.39995 212.6875,17.21635 212.5192,17.088325 C212.04625,16.722925 211.369225,16.813375 211.02025,17.282725 Z M210.409375,12.1894 C209.93665,11.8294 209.272225,11.91355 208.910425,12.3748 C208.845175,12.45355 208.800175,12.5449 208.761925,12.63355 L206.821525,12.63355 C206.6611,12.647725 206.516875,12.7024 206.38705,12.79465 C206.257225,12.8752 206.1508,12.99085 206.088025,13.13935 C206.06125,13.200325 206.03605,13.279075 206.01805,13.368625 C206.014675,13.396525 206.00635,13.4278 206.00635,13.468075 L206.00635,18.040975 C206.002075,18.2023 206.04235,18.3544 206.1238,18.484225 C206.189275,18.62395 206.3083,18.7378 206.438125,18.80395 C206.56615,18.8863 206.726575,18.924775 206.883175,18.924775 L207.1705,18.924775 C207.252175,19.0699 207.342625,19.202425 207.481225,19.306375 C207.94765,19.671775 208.6294,19.5856 208.9849,19.123675 C209.3413,18.65185 209.265025,17.974825 208.7986,17.627425 C208.328575,17.259325 207.65425,17.341675 207.29965,17.807425 C207.1705,17.955925 207.11695,18.117925 207.090175,18.29995 L206.8681,18.29995 C206.8312,18.29995 206.789125,18.28825 206.75245,18.266875 C206.713975,18.246175 206.6899,18.218275 206.6611,18.1762 C206.6494,18.139525 206.6341,18.10105 206.6341,18.053575 L206.6341,13.462675 C206.6341,13.4386 206.6494,13.4152 206.652325,13.396525 C206.673475,13.368625 206.696875,13.32655 206.74435,13.30495 C206.77405,13.279075 206.821525,13.268275 206.8429,13.268275 L208.71535,13.2604 C208.770925,13.49755 208.89985,13.719625 209.099425,13.88455 C209.56225,14.237125 210.24445,14.1559 210.604675,13.69195 C210.961975,13.223725 210.880525,12.553675 210.409375,12.1894 Z M213.48265,9.7099 C213.9061,10.0438 214.50145,9.996325 214.88215,9.61315 L214.884625,12.96295 C214.884625,13.009525 214.884625,13.066 214.89925,13.104475 C214.925125,13.279075 215.017375,13.4278 215.136625,13.554025 C215.259025,13.67395 215.41945,13.7599 215.58955,13.796575 C215.628025,13.805575 215.671,13.810975 215.725675,13.810975 L217.8085,13.810975 L217.89175,13.810975 C217.924825,13.819975 217.975,13.842475 218.0056,13.87015 C218.031475,13.896925 218.06275,13.9435 218.071525,13.9732 L218.071525,14.020675 L218.071525,14.8498 C217.8355,14.893675 217.6078,15.0244 217.4377,15.236575 C217.0786,15.7012 217.161175,16.367425 217.6375,16.741825 C218.106625,17.095525 218.77645,17.01115 219.13555,16.541125 C219.498925,16.0828 219.414775,15.411175 218.94115,15.042175 C218.875,14.985925 218.80165,14.956225 218.724475,14.91595 L218.724475,14.05555 L218.720875,13.9732 C218.713675,13.93 218.713675,13.88455 218.6959,13.842475 C218.6644,13.67395 218.572375,13.51195 218.44435,13.396525 C218.3197,13.279075 218.1541,13.196725 217.9903,13.17625 C217.932025,13.16185 217.882075,13.16185 217.8085,13.16185 L215.78395,13.16185 L215.707,13.15825 C215.671,13.15285 215.628025,13.123375 215.58955,13.093675 C215.56345,13.0714 215.534875,13.025725 215.5297,12.946975 L215.5297,9.60505 C215.5297,9.5119 215.5153,9.43675 215.4874,9.3409 C215.43385,9.1852 215.3281,9.05695 215.200075,8.952325 C215.22235,8.598625 215.08105,8.251225 214.7854,8.01835 C214.314475,7.64575 213.65185,7.7416 213.28735,8.20915 C212.923075,8.679175 213.004525,9.3409 213.48265,9.7099 Z M211.6201,33.66295 C211.27,34.1296 211.34605,34.8046 211.813375,35.17 C212.282725,35.5273 212.95705,35.442925 213.31615,34.9747 C213.678625,34.510975 213.592675,33.84115 213.121525,33.47395 C213.062575,33.4267 213.004525,33.3988 212.954125,33.360325 L212.954125,31.760125 C213.040075,31.69375 213.12985,31.6213 213.2041,31.516675 C213.572875,31.051825 213.48715,30.3838 213.0259,30.013225 C212.555875,29.6539 211.88245,29.745475 211.51885,30.2029 C211.15615,30.67045 211.2421,31.340275 211.71235,31.70725 C211.813375,31.7824 211.933525,31.852375 212.06065,31.88365 L212.06065,33.340525 C211.89235,33.406 211.739125,33.512425 211.6201,33.66295 Z M196.32775,32.96995 L198.5494,32.96995 C198.740875,32.96995 198.940675,32.8912 199.095475,32.77465 C199.2505,32.641225 199.359625,32.454025 199.3873,32.270425 C199.4098,32.186275 199.4098,32.120125 199.4098,32.120125 L199.4098,30.5548 L199.4188,30.527125 C199.425775,30.48145 199.434775,30.463675 199.450075,30.430375 C199.477075,30.3937 199.528825,30.353425 199.579,30.336325 C199.5988,30.32215 199.643575,30.32035 199.66855,30.32035 L205.034125,30.32035 C205.034125,30.621175 205.17115,30.9364 205.435975,31.138675 C205.904425,31.499575 206.57515,31.410025 206.93695,30.949675 C207.29965,30.48145 207.2137,29.804425 206.74435,29.448025 C206.286025,29.081725 205.609,29.1679 205.2418,29.637025 C205.2292,29.657725 205.214125,29.6818 205.2094,29.7034 L199.648075,29.7034 C199.5655,29.7034 199.471675,29.7142 199.381225,29.745475 C199.185025,29.804425 199.0219,29.934475 198.915475,30.11065 C198.861925,30.2029 198.82345,30.29785 198.81445,30.3937 C198.797125,30.444775 198.79015,30.501925 198.79015,30.5548 L198.79015,32.05915 C198.79015,32.05915 198.79015,32.120125 198.78565,32.1532 C198.78115,32.198875 198.740875,32.25445 198.702625,32.294725 C198.653125,32.3233 198.60295,32.3422 198.5386,32.3422 L196.375225,32.3422 C196.277575,31.859575 195.842425,31.499575 195.3337,31.499575 C194.73655,31.499575 194.2528,31.9696 194.2528,32.562475 C194.2528,33.14995 194.73655,33.634375 195.3337,33.634375 C195.77875,33.634375 196.16125,33.360325 196.32775,32.96995 Z M194.574325,29.8672 C194.574325,29.384575 194.239525,28.9717 193.793575,28.837375 L193.793575,27.7495 C193.793575,27.7495 193.783675,27.705625 193.793575,27.681325 C193.798075,27.63925 193.808875,27.609775 193.84015,27.5623 C193.868725,27.5398 193.9054,27.512125 193.9342,27.49075 C193.959175,27.49075 193.974475,27.48355 193.98775,27.47365 L203.143,27.47005 L203.329075,27.47005 C203.4769,27.47005 203.6272,27.426175 203.74645,27.343825 C203.877175,27.27925 203.9827,27.169225 204.043675,27.048175 C204.122425,26.920375 204.1609,26.77345 204.1609,26.61505 L204.1609,26.453725 C204.493225,26.266525 204.7216,25.918225 204.7216,25.51615 C204.7216,24.9253 204.247975,24.442675 203.6524,24.442675 C203.067625,24.442675 202.5796,24.9253 202.5796,25.51615 C202.5796,26.07055 203.005975,26.5093 203.537875,26.57635 L203.537875,26.61505 C203.537875,26.6596 203.522575,26.696275 203.509975,26.731375 C203.4841,26.76895 203.461825,26.79325 203.42695,26.815525 C203.39635,26.8387 203.344375,26.8522 203.315575,26.8522 L194.064025,26.8522 L194.00845,26.8522 C193.971775,26.8522 193.9315,26.8612 193.891225,26.863 C193.82215,26.8774 193.7479,26.890675 193.680625,26.923975 C193.5499,26.983825 193.434475,27.076075 193.345825,27.2005 C193.258075,27.31615 193.2025,27.45205 193.172125,27.5902 L193.172125,27.7495 L193.172125,28.858075 C192.745975,29.002075 192.43075,29.39695 192.43075,29.8672 C192.43075,30.463675 192.916975,30.9472 193.50895,30.9472 C194.1025,30.9472 194.574325,30.463675 194.574325,29.8672 Z M177.864475,5.494975 C178.252375,5.494975 178.596175,5.2846 178.78315,4.964875 L183.393175,4.964875 L183.5104,4.964875 C183.540775,4.981975 183.55495,4.99435 183.57745,5.01685 C183.59545,5.03665 183.602425,5.060725 183.61615,5.0911 L183.61615,5.135875 L183.61615,6.660925 C183.1513,6.77815 182.7994,7.191025 182.7994,7.69165 C182.7994,8.2897 183.282925,8.765125 183.8677,8.765125 C184.46755,8.765125 184.934875,8.2897 184.934875,7.69165 C184.934875,7.247275 184.660825,6.8605 184.26955,6.7084 L184.26955,5.135875 C184.26955,5.0911 184.263475,5.04745 184.25605,5.00875 L184.25605,4.99795 C184.245475,4.856425 184.180225,4.707925 184.09045,4.594075 C183.9847,4.471675 183.8596,4.387525 183.712675,4.347025 C183.6481,4.31575 183.56755,4.30225 183.4879,4.30225 L178.921975,4.29865 C178.854925,3.77035 178.412575,3.3523 177.864475,3.3523 C177.279025,3.3523 176.8009,3.834925 176.8009,4.4206 C176.8009,5.01595 177.279025,5.494975 177.864475,5.494975 Z M206.619925,6.95635 C207.2137,6.95635 207.687325,6.475525 207.687325,5.88445 C207.687325,5.37055 207.326425,4.93 206.8429,4.84225 L206.8429,4.734025 C206.8429,4.68295 206.8546,4.63615 206.883175,4.6033 C206.90635,4.5574 206.95045,4.527925 206.985325,4.527925 C207.0076,4.520725 207.0184,4.51375 207.029875,4.51375 L207.07645,4.51375 L208.034725,4.51375 C208.0651,4.51375 208.0813,4.527925 208.1056,4.527925 C208.117075,4.527925 208.14835,4.541425 208.16545,4.550425 C208.203925,4.5799 208.237225,4.616575 208.2478,4.67125 C208.2478,4.67125 208.264,4.707925 208.2478,4.7518 L208.2478,9.6991 C208.2478,9.79495 208.264,9.904975 208.289875,9.98755 C208.318675,10.084075 208.35175,10.17115 208.4188,10.2517 C208.53715,10.4146 208.69735,10.531825 208.885225,10.591 C208.966,10.6171 209.05285,10.629475 209.168275,10.629475 L210.10945,10.629475 C210.173125,10.7575 210.26245,10.877425 210.3997,10.979575 C210.8623,11.341375 211.53415,11.257225 211.89235,10.7854 C212.260225,10.31965 212.1745,9.655225 211.71235,9.295225 C211.2421,8.92825 210.5671,9.007 210.1999,9.468025 C210.092575,9.61315 210.0334,9.78145 210.0001,9.950875 L209.146,9.950875 C209.1217,9.950875 209.099425,9.950875 209.081425,9.945475 C209.033275,9.931975 208.9858,9.904975 208.968475,9.862225 C208.9507,9.842425 208.946425,9.828925 208.9417,9.79495 C208.9309,9.77965 208.923925,9.751975 208.923925,9.7099 L208.923925,4.7599 C208.9309,4.65865 208.921225,4.5682 208.89265,4.471675 C208.837075,4.279075 208.71535,4.11145 208.54345,3.999625 C208.473475,3.94135 208.383025,3.902875 208.289875,3.8788 C208.209325,3.8491 208.1056,3.834925 208.015825,3.8455 L207.07645,3.8455 L206.96215,3.8455 C206.92165,3.8491 206.8681,3.8563 206.8312,3.8626 C206.6341,3.915475 206.465125,4.0363 206.339575,4.190425 C206.22325,4.347025 206.1508,4.541425 206.161375,4.734025 L206.161375,4.93 C205.802275,5.101 205.553425,5.4664 205.553425,5.88445 C205.553425,6.475525 206.03605,6.95635 206.619925,6.95635 Z M196.7773,2.6197 C197.3002,2.6197 197.72725,2.2624 197.834575,1.783375 L199.331725,1.783375 L199.375825,1.783375 C199.428475,1.790575 199.48225,1.83085 199.510825,1.874725 C199.528825,1.893625 199.543225,1.9321 199.543225,1.955275 L199.543225,2.01985 L199.543225,2.236525 C199.543225,2.2993 199.543225,2.36635 199.5574,2.421925 C199.579,2.54095 199.623775,2.659975 199.697125,2.754025 C199.7635,2.864275 199.84765,2.955625 199.9561,3.010975 C200.063425,3.08275 200.179075,3.126625 200.2945,3.1462 C200.350075,3.1561 200.40475,3.1561 200.463925,3.1561 L202.15975,3.1561 C202.302175,3.60205 202.697725,3.928075 203.183275,3.928075 C203.777725,3.928075 204.251575,3.447025 204.251575,2.850775 C204.251575,2.2624 203.777725,1.783375 203.183275,1.783375 C202.726525,1.783375 202.34875,2.065525 202.195525,2.4694 L200.4475,2.4694 C200.430625,2.4694 200.411725,2.4694 200.40475,2.4622 C200.371675,2.4622 200.356375,2.4478 200.318575,2.4361 C200.2945,2.421925 200.2792,2.407525 200.2702,2.37805 C200.247925,2.35915 200.247925,2.327875 200.231725,2.2993 L200.231725,2.245525 L200.231725,2.02165 C200.231725,1.975975 200.231725,1.9168 200.21485,1.86055 C200.20495,1.7395 200.164675,1.612375 200.095825,1.513825 C199.972075,1.30075 199.743025,1.150225 199.50025,1.10275 C199.450075,1.093075 199.3873,1.087675 199.331725,1.087675 L199.32385,1.087675 L197.749525,1.087675 C197.57425,0.730375 197.214025,0.4786 196.7773,0.4786 C196.194325,0.4786 195.7117,0.96685 195.7117,1.546225 C195.7117,2.140675 196.194325,2.6197 196.7773,2.6197 Z M191.938225,11.357575 C192.015175,11.405725 192.08965,11.425525 192.1864,11.439025 C192.23455,11.4478 192.282925,11.4478 192.358975,11.4478 L196.715425,11.4478 C196.803175,11.4478 196.898125,11.429125 196.974175,11.40955 C197.140675,11.348575 197.3002,11.251825 197.40595,11.095225 C197.511475,10.9582 197.56075,10.7782 197.56075,10.6054 L197.56075,9.60505 C198.06565,9.5119 198.43735,9.07495 198.43735,8.55205 C198.43735,7.960975 197.965525,7.48465 197.37535,7.48465 C196.7773,7.48465 196.29625,7.960975 196.29625,8.55205 C196.29625,8.9998 196.5793,9.385675 196.970575,9.538 L196.970575,10.6054 C196.970575,10.6054 196.9492,10.70125 196.9249,10.7467 C196.890925,10.794175 196.85065,10.825675 196.7998,10.84255 C196.772575,10.85335 196.7458,10.85335 196.715425,10.85335 L192.40825,10.85335 L192.326125,10.85335 L192.275725,10.85335 C192.253225,10.85335 192.22645,10.84255 192.196975,10.825675 C192.1522,10.809475 192.112825,10.7575 192.08875,10.715425 C192.06895,10.697425 192.05725,10.67515 192.053875,10.613275 L192.053875,8.862775 C192.495325,8.73565 192.838225,8.331775 192.838225,7.84195 C192.838225,7.2511 192.358975,6.77005 191.759125,6.77005 C191.16805,6.77005 190.691725,7.2511 190.691725,7.84195 C190.691725,8.331775 191.02405,8.73565 191.4547,8.862775 L191.4547,10.613275 C191.4547,10.613275 191.4709,10.697425 191.4709,10.7467 C191.489575,10.836475 191.519275,10.916125 191.562025,10.994875 C191.6419,11.148775 191.773525,11.2822 191.938225,11.357575 Z M191.249725,3.95035 C191.70265,3.95035 192.08875,3.665725 192.23995,3.276925 L193.891225,3.276925 L193.9315,3.276925 L193.9441,3.276925 C193.959175,3.276925 193.971775,3.276925 193.98775,3.291325 C193.995175,3.298525 194.00845,3.303025 194.01745,3.312025 C193.64305,3.469525 193.3789,3.8491 193.3789,4.293475 C193.3789,4.884325 193.868725,5.35975 194.444725,5.35975 C195.041875,5.35975 195.5173,4.884325 195.5173,4.293475 C195.5173,3.78925 195.1771,3.375475 194.707075,3.25465 C194.707075,3.25465 194.707075,3.24205 194.699875,3.24205 C194.6623,3.119425 194.5975,3.0022 194.500975,2.927725 C194.415025,2.827375 194.2897,2.754025 194.170675,2.71735 C194.1043,2.704075 194.046025,2.693275 193.98775,2.693275 C193.959175,2.693275 193.9315,2.678875 193.891225,2.678875 L192.305425,2.678875 C192.212275,2.18725 191.773525,1.809475 191.249725,1.809475 C190.66135,1.809475 190.179625,2.284 190.179625,2.88385 C190.179625,3.469525 190.66135,3.95035 191.249725,3.95035 Z M180.8302,3.5152 C181.252075,3.5152 181.606675,3.276925 181.782175,2.934025 L184.8946,2.934025 C185.00935,2.934025 185.1169,2.911525 185.213425,2.87845 C185.300275,2.89735 185.390725,2.911525 185.480275,2.911525 C186.07855,2.911525 186.560275,2.4361 186.560275,1.83805 C186.560275,1.249675 186.07855,0.77245 185.480275,0.77245 C184.8946,0.77245 184.411075,1.249675 184.411075,1.83805 C184.411075,1.98835 184.447975,2.1121 184.492525,2.245525 L181.8868,2.245525 C181.798375,1.7521 181.3693,1.3795 180.8302,1.3795 C180.245425,1.3795 179.7655,1.86055 179.7655,2.446 C179.7655,3.042475 180.245425,3.5152 180.8302,3.5152 Z M176.112175,22.16725 C176.112175,21.579775 175.632025,21.10165 175.0396,21.10165 C174.53425,21.10165 174.118,21.45175 174.006175,21.9328 L173.68735,21.9328 C173.65765,21.9328 173.634475,21.9184 173.619175,21.9103 C173.577325,21.9031 173.538625,21.877 173.50645,21.83335 C173.479675,21.80005 173.467975,21.761575 173.467975,21.703525 L173.467975,15.851725 L173.467975,15.721 C173.467975,15.63325 173.439175,15.5284 173.399125,15.43345 C173.33635,15.251875 173.205625,15.09775 173.0344,14.9965 C172.944175,14.94385 172.852825,14.905375 172.760575,14.888275 C172.7221,14.882875 172.668325,14.872075 172.61005,14.868475 L172.5133,14.868475 L171.1489,14.868475 L171.112225,14.868475 C171.06475,14.863975 171.02425,14.8372 170.990275,14.8093 C170.9599,14.772625 170.9428,14.73055 170.9428,14.6806 L170.9383,14.6401 L170.9383,11.095225 L170.9428,11.02345 C170.9482,10.998475 170.9527,10.979575 170.9671,10.9582 C170.990275,10.9339 171.02875,10.893625 171.082525,10.87945 C171.0958,10.877425 171.1246,10.86235 171.1489,10.86775 L172.790275,10.86775 C172.98355,10.86775 173.167825,10.809475 173.31565,10.697425 C173.479675,10.591 173.596675,10.4236 173.647075,10.2328 C173.67835,10.14325 173.690725,10.0438 173.68735,9.950875 L173.68735,7.100575 L173.701525,7.100575 C174.2908,7.100575 174.77635,6.61975 174.77635,6.027775 C174.77635,5.436925 174.2908,4.961275 173.701525,4.961275 C173.12035,4.961275 172.63525,5.436925 172.63525,6.027775 C172.63525,6.352 172.77385,6.634825 172.996825,6.840025 L172.996825,9.96505 L172.996825,10.018825 C172.98355,10.085875 172.95115,10.119175 172.915375,10.15045 C172.876,10.17655 172.841125,10.185325 172.77385,10.185325 L171.134275,10.185325 C171.04585,10.185325 170.9527,10.204225 170.86495,10.2292 C170.68045,10.290175 170.50495,10.4146 170.399425,10.570525 C170.35015,10.659175 170.305375,10.7467 170.285575,10.84255 C170.2498,10.916125 170.2426,11.02165 170.2498,11.1085 L170.2498,14.627725 L170.2498,14.772625 C170.278375,14.959825 170.368825,15.147025 170.49775,15.28675 C170.64355,15.425575 170.821075,15.5176 171.01975,15.5491 C171.057325,15.5491 171.112225,15.559675 171.1489,15.559675 L172.61725,15.565075 C172.642225,15.565075 172.660225,15.578575 172.683625,15.591175 C172.7221,15.61255 172.749775,15.64585 172.760575,15.694 C172.77385,15.7066 172.78555,15.7246 172.78555,15.7246 L172.78555,21.698125 C172.78555,21.8941 172.841125,22.0921 172.96105,22.2442 C173.0758,22.403725 173.2468,22.51825 173.4295,22.565725 C173.51095,22.5988 173.596675,22.6114 173.68735,22.6114 L174.07345,22.6114 C174.237025,22.975 174.610525,23.23195 175.0396,23.23195 C175.632025,23.23195 176.112175,22.761925 176.112175,22.16725 Z M183.43795,25.750825 L193.2457,25.750825 L193.334125,25.750825 C193.3789,25.750825 193.434475,25.731025 193.48285,25.71595 C193.693225,25.668475 193.87435,25.53055 193.98775,25.35145 C194.046025,25.246825 194.0872,25.156375 194.1043,25.052425 L194.1043,25.042525 C194.574325,24.9253 194.92105,24.505225 194.92105,23.996725 C194.92105,23.40385 194.4436,22.932925 193.85545,22.932925 C193.258075,22.932925 192.78625,23.40385 192.78625,23.996725 C192.78625,24.45775 193.069075,24.846325 193.46485,25.00405 C193.46485,25.00405 193.46485,25.01125 193.457875,25.01485 C193.434475,25.057825 193.3789,25.0999 193.334125,25.121275 C193.31635,25.121275 193.30285,25.121275 193.276075,25.123075 L193.237375,25.123075 L183.44965,25.123075 C183.43795,25.123075 183.41635,25.121275 183.393175,25.121275 L183.389575,25.1143 C183.654625,24.9253 183.8398,24.601975 183.8398,24.242875 C183.8398,23.646625 183.3547,23.1604 182.773525,23.1604 C182.175925,23.1604 181.6996,23.646625 181.6996,24.242875 C181.6996,24.806275 182.146675,25.2718 182.70445,25.301275 C182.773525,25.4284 182.86375,25.53055 182.981875,25.6057 C183.075025,25.668475 183.178075,25.71235 183.282925,25.731025 C183.3313,25.73485 183.389575,25.750825 183.43795,25.750825 Z M207.572575,25.35685 C208.040125,25.71595 208.71535,25.642375 209.071525,25.17685 C209.438725,24.705025 209.355475,24.0244 208.885225,23.6716 C208.734025,23.554375 208.569325,23.4889 208.389325,23.461225 C208.375825,23.440525 208.364125,23.433325 208.35805,23.40385 C208.267375,23.3143 208.15735,23.23195 208.027525,23.176375 C207.960475,23.1604 207.895,23.1397 207.840325,23.1397 C207.78745,23.1271 207.7393,23.1271 207.687325,23.1271 L200.71345,23.1271 C200.6707,23.1271 200.6392,23.1199 200.609725,23.097625 C200.569225,23.07445 200.54245,23.06275 200.529175,23.020675 C200.5024,22.9912 200.487775,22.9525 200.487775,22.915825 L200.487775,22.280875 C200.487775,22.280875 200.487775,22.2442 200.484175,22.2442 C200.484175,22.2442 200.484175,22.15645 200.479,22.132375 C200.463925,21.99355 200.40475,21.870025 200.329375,21.761575 C200.247925,21.64975 200.142175,21.5602 200.03395,21.495625 C199.9138,21.425875 199.7734,21.3964 199.636375,21.3964 L197.181175,21.3964 C197.1184,21.3964 197.046625,21.404275 196.988575,21.413275 C196.85965,21.444775 196.7368,21.501025 196.628575,21.587875 C196.51855,21.681025 196.437775,21.782275 196.3921,21.9031 C196.33765,22.020325 196.30705,22.15645 196.30705,22.280875 L196.30705,23.25355 C195.9079,23.40385 195.62215,23.793325 195.62215,24.250075 C195.62215,24.846325 196.093975,25.323775 196.689325,25.323775 C197.2822,25.323775 197.75425,24.846325 197.75425,24.250075 C197.75425,23.741575 197.40595,23.3251 196.9402,23.21485 L196.9402,22.2739 C196.9402,22.2334 196.9402,22.19515 196.9492,22.16725 C196.970575,22.126975 196.988575,22.0939 197.014675,22.0705 C197.052925,22.046425 197.084425,22.032025 197.1184,22.020325 C197.1337,22.020325 197.140675,22.020325 197.181175,22.013125 L199.623775,22.013125 C199.66585,22.013125 199.70455,22.020325 199.734025,22.046425 C199.7734,22.0606 199.802875,22.0921 199.826275,22.117975 C199.845175,22.144075 199.86205,22.19515 199.86205,22.19515 L199.866325,22.854175 C199.866325,22.89805 199.866325,22.9471 199.86925,22.9912 C199.88365,23.1199 199.9309,23.25355 200.00785,23.363575 C200.070625,23.4772 200.179075,23.56765 200.2945,23.637625 C200.411725,23.701075 200.54245,23.741575 200.688475,23.74765 L207.491125,23.74765 C207.45805,23.78455 207.414175,23.818525 207.384475,23.8633 C207.0229,24.325225 207.09895,25.00405 207.572575,25.35685 Z M189.802525,27.529225 C189.204475,27.529225 188.73175,28.00465 188.73175,28.593025 C188.73175,29.05945 189.020875,29.448025 189.42925,29.60035 L189.42925,30.5638 C189.42925,30.5638 189.41575,30.5899 189.41305,30.613975 C189.39505,30.64885 189.372775,30.67765 189.3415,30.694525 C189.308425,30.716125 189.285025,30.7384 189.23125,30.716125 L184.68625,30.716125 L184.63585,30.716125 C184.607275,30.716125 184.595575,30.707125 184.5733,30.699925 C184.543825,30.67765 184.5283,30.65245 184.504225,30.613975 C184.494325,30.602275 184.492525,30.5809 184.492525,30.5809 L184.492525,30.3937 C184.99945,30.29785 185.377225,29.8645 185.377225,29.3398 C185.377225,28.751425 184.8946,28.2724 184.30555,28.2724 C183.712675,28.2724 183.234325,28.751425 183.234325,29.3398 C183.234325,29.8429 183.57385,30.246775 184.0333,30.369625 L184.0333,30.527125 L184.0333,30.613975 C184.0405,30.67765 184.061875,30.7384 184.09045,30.799375 C184.137025,30.9202 184.230175,31.03045 184.332325,31.0867 C184.4023,31.126975 184.44955,31.145875 184.5283,31.165675 C184.5571,31.17355 184.5805,31.18075 184.616275,31.18075 C184.64305,31.18795 184.660825,31.18795 184.68625,31.18795 L189.24115,31.18795 C189.372775,31.18795 189.494725,31.145875 189.59215,31.0795 C189.6988,31.00435 189.79285,30.9013 189.840325,30.778675 C189.8581,30.716125 189.8788,30.65965 189.8788,30.5809 L189.8788,29.657725 C190.4341,29.61025 190.873525,29.1625 190.873525,28.593025 C190.873525,28.00465 190.3909,27.529225 189.802525,27.529225 Z M181.1956,26.1493 C180.75145,26.1493 180.362875,26.41525 180.20785,26.805625 L179.2435,26.805625 C179.187025,26.805625 179.12875,26.785825 179.077,26.76355 C179.025925,26.734975 178.98385,26.696275 178.948975,26.630125 C178.921975,26.57635 178.9087,26.518075 178.9087,26.446525 L178.9087,24.9253 C178.9087,24.853525 178.9087,24.774775 178.893625,24.710425 C178.870225,24.48475 178.768975,24.27235 178.63195,24.10675 C178.49965,23.93305 178.306825,23.813125 178.10005,23.732575 C177.9934,23.701075 177.897775,23.6761 177.789325,23.662825 L177.6667,23.662825 L177.445525,23.662825 C177.268225,23.3143 176.901925,23.06275 176.482975,23.06275 C175.8928,23.06275 175.419175,23.548975 175.419175,24.13285 C175.419175,24.7183 175.8928,25.20025 176.482975,25.20025 C176.9269,25.20025 177.3112,24.9253 177.4705,24.528625 L177.6667,24.528625 C177.6838,24.528625 177.695275,24.528625 177.72655,24.5419 C177.75175,24.5419 177.781225,24.5527 177.8071,24.5617 C177.864475,24.5734 177.92005,24.613675 177.957625,24.67015 C177.9934,24.710425 178.0213,24.771175 178.0285,24.83575 C178.0366,24.857125 178.0366,24.901 178.0366,24.9253 L178.0366,26.433925 C178.0285,26.6668 178.086775,26.8774 178.1914,27.0556 C178.297825,27.251575 178.46455,27.4174 178.650625,27.529225 C178.83715,27.626875 179.038525,27.681325 179.2435,27.681325 L180.234625,27.681325 C180.40855,28.035025 180.76765,28.2832 181.1956,28.2832 C181.782175,28.2832 182.2666,27.80215 182.2666,27.2176 C182.2666,26.626525 181.782175,26.1493 181.1956,26.1493 Z M191.680375,19.54015 C191.7661,19.818475 191.979625,20.04955 192.253225,20.165875 C192.383275,20.22955 192.523,20.259025 192.664525,20.259025 L199.15015,20.259025 L199.297075,20.259025 C199.371325,20.259025 199.445575,20.255425 199.510825,20.23855 C199.658875,20.196475 199.793875,20.1418 199.9039,20.04955 C200.02135,19.9618 200.128675,19.851775 200.192575,19.732525 C200.255125,19.5982 200.3044,19.4533 200.318575,19.32685 C200.329375,19.2688 200.329375,19.222225 200.329375,19.17475 L200.329375,17.6704 C200.688475,17.4994 200.93305,17.1376 200.93305,16.71055 C200.93305,16.110475 200.463925,15.63865 199.866325,15.63865 C199.277275,15.63865 198.797125,16.110475 198.797125,16.71055 C198.797125,17.20915 199.13755,17.616625 199.5925,17.737675 L199.5925,19.18375 L199.5925,19.2355 C199.579,19.281175 199.573825,19.32685 199.549525,19.35835 C199.528825,19.409425 199.50025,19.4389 199.461775,19.4533 C199.425775,19.479175 199.381225,19.50685 199.342525,19.51405 C199.331725,19.52485 199.30405,19.52485 199.292575,19.52485 L192.682525,19.52485 C192.630325,19.52485 192.588475,19.51405 192.549775,19.49605 C192.466525,19.4533 192.40825,19.387825 192.383275,19.306375 C192.383275,19.306375 192.3637,19.2796 192.3637,19.2445 C192.3637,19.2445 192.358975,19.202425 192.358975,19.17475 L192.358975,17.59705 C192.358975,17.56735 192.358975,17.548675 192.3637,17.521675 C192.3637,17.4787 192.383275,17.431225 192.40825,17.38915 C192.462025,17.3176 192.538075,17.264725 192.61435,17.245825 L192.7075,17.245825 L195.232675,17.245825 C195.399175,17.604025 195.76255,17.854 196.194325,17.854 C196.7773,17.854 197.264425,17.37295 197.264425,16.7803 C197.264425,16.189225 196.7773,15.7066 196.194325,15.7066 C195.6982,15.7066 195.285325,16.047925 195.1654,16.50265 L192.824725,16.50265 L192.716275,16.50265 C192.642025,16.50265 192.559675,16.50265 192.476425,16.52335 C192.196975,16.578025 191.938225,16.758025 191.7841,17.01115 C191.70265,17.1268 191.6509,17.271925 191.6392,17.41885 C191.6266,17.4787 191.6266,17.548675 191.6266,17.59705 L191.6266,19.18375 C191.6266,19.2355 191.6266,19.288375 191.6338,19.33405 C191.6392,19.409425 191.657875,19.464775 191.680375,19.54015 Z M200.529175,13.85845 C200.487775,13.84405 200.463925,13.810975 200.441425,13.7761 C200.411725,13.739425 200.39935,13.70635 200.39935,13.70635 L200.39035,8.611225 C200.926525,8.55205 201.352,8.1043 201.352,7.5616 C201.352,6.95995 200.865775,6.493525 200.275825,6.493525 C199.68385,6.493525 199.21,6.95995 199.21,7.5616 C199.21,7.990675 199.461775,8.352475 199.826275,8.523475 L199.826275,13.6078 L199.826275,13.70635 C199.84405,13.842475 199.877125,13.9732 199.9561,14.086825 C200.02855,14.19415 200.1334,14.2918 200.247925,14.370775 C200.371675,14.427925 200.5024,14.4682 200.6419,14.4718 L204.409975,14.4718 C204.45295,14.4718 204.499525,14.488 204.5317,14.4961 C204.578275,14.526475 204.60235,14.55055 204.61945,14.594425 C204.65095,14.627725 204.66535,14.6698 204.66535,14.6698 L204.66535,18.5488 C204.66535,18.5488 204.66535,18.62395 204.657925,18.65185 C204.65095,18.693925 204.627775,18.741175 204.60235,18.770875 C204.578275,18.79315 204.5371,18.82465 204.499525,18.83905 C204.472525,18.840625 204.44935,18.856825 204.43225,18.859525 L203.6398,18.859525 C203.622925,18.576475 203.4841,18.29995 203.242225,18.11455 C202.7695,17.75275 202.0954,17.8315 201.739,18.29995 C201.376075,18.770875 201.461125,19.444075 201.922375,19.800475 C202.393525,20.165875 203.067625,20.080825 203.433925,19.6135 C203.4751,19.559725 203.509975,19.49605 203.54395,19.4263 L204.3904,19.4263 C204.420775,19.4263 204.45745,19.4263 204.488725,19.4209 C204.5488,19.4209 204.61945,19.409425 204.6865,19.379725 C204.818125,19.33405 204.930175,19.2445 205.023325,19.14865 C205.112875,19.050325 205.17925,18.924775 205.214125,18.79315 C205.2418,18.6991 205.2418,18.600775 205.2418,18.519325 L205.2418,14.761825 L205.2418,14.6698 C205.2292,14.534575 205.191625,14.40025 205.112875,14.277625 C205.034125,14.161975 204.930175,14.071525 204.81385,14.00695 C204.6964,13.9399 204.5605,13.896925 204.420775,13.896925 L200.6419,13.896925 C200.609725,13.896925 200.569225,13.886125 200.529175,13.85845 Z M178.948975,23.56765 C179.394925,23.56765 179.7772,23.292025 179.9356,22.89805 L181.81345,22.89805 C181.9039,22.89805 182.00965,22.88095 182.0974,22.854175 C182.199325,22.8139 182.294275,22.761925 182.383825,22.69195 C182.54875,22.54705 182.67295,22.34905 182.687575,22.144075 C182.70445,22.0705 182.70445,22.020325 182.70445,21.98005 L182.70445,21.073975 L182.70445,21.0229 C182.733025,20.95315 182.773525,20.904775 182.826175,20.874175 C182.834275,20.869675 182.86375,20.866075 182.888725,20.866075 L182.943625,20.866075 L189.451525,20.866075 C189.600025,21.261175 189.990625,21.5395 190.44445,21.5395 C191.035525,21.5395 191.509375,21.073975 191.509375,20.4721 C191.509375,19.88665 191.035525,19.409425 190.44445,19.409425 C189.95575,19.409425 189.553,19.732525 189.41575,20.174875 L182.943625,20.174875 L182.812,20.174875 C182.70445,20.189275 182.6023,20.22235 182.50555,20.277925 C182.313175,20.371075 182.14915,20.545675 182.0749,20.74345 C182.040925,20.8519 182.02045,20.95315 182.02045,21.073975 L182.02045,22.035625 C182.00965,22.0921 181.98175,22.126975 181.939,22.16725 C181.926175,22.17265 181.9039,22.19515 181.8769,22.205725 C181.847425,22.205725 181.847425,22.212925 181.782175,22.212925 L179.9698,22.212925 C179.844475,21.761575 179.4415,21.425875 178.948975,21.425875 C178.3516,21.425875 177.8701,21.9031 177.8701,22.504975 C177.8701,23.097625 178.3516,23.56765 178.948975,23.56765 Z M179.6323,19.379725 C179.6233,19.4209 179.5981,19.444075 179.572225,19.459375 C179.544325,19.479175 179.50945,19.50685 179.479975,19.50685 C179.4649,19.51405 179.4415,19.51405 179.4136,19.51405 L178.81015,19.51405 C178.659625,19.110175 178.26655,18.80395 177.8071,18.80395 C177.21175,18.80395 176.730925,19.288375 176.730925,19.87225 C176.730925,20.465125 177.21175,20.95315 177.8071,20.95315 C178.315825,20.95315 178.7377,20.59675 178.847725,20.123125 L179.4415,20.123125 C179.479975,20.123125 179.52925,20.123125 179.572225,20.103325 C179.71555,20.090725 179.856175,20.022775 179.9716,19.923325 C180.085225,19.825675 180.169375,19.69225 180.20785,19.559725 C180.234625,19.479175 180.245425,19.409425 180.245425,19.32685 L180.245425,16.2682 C180.24115,16.189225 180.234625,16.126675 180.20785,16.047925 C180.160375,15.9064 180.07465,15.771175 179.9581,15.682525 C179.844475,15.582175 179.70385,15.5284 179.544325,15.503425 C179.52025,15.501625 179.479975,15.501625 179.4415,15.501625 L177.095425,15.501625 C176.9881,15.0244 176.561725,14.6698 176.0548,14.6698 C175.45945,14.6698 174.9748,15.141625 174.9748,15.732475 C174.9748,16.33075 175.45945,16.8001 176.0548,16.8001 C176.51425,16.8001 176.89585,16.51255 177.04975,16.110475 L179.479975,16.110475 C179.50945,16.110475 179.544325,16.132075 179.572225,16.15435 C179.5981,16.17325 179.6188,16.201825 179.6323,16.2457 C179.636575,16.2538 179.636575,16.2682 179.636575,16.2682 L179.636575,19.32685 C179.636575,19.32685 179.636575,19.35835 179.6323,19.379725 Z M187.80115,13.4116 C187.7467,13.223725 187.64095,13.048 187.512925,12.915475 C187.3732,12.770575 187.1941,12.658525 187.0159,12.60565 C186.94345,12.579775 186.8341,12.563575 186.723175,12.562 L184.877725,12.562 C184.68625,12.238675 184.345825,12.013 183.94915,12.013 C183.3547,12.013 182.88085,12.493825 182.88085,13.0831 C182.88085,13.67395 183.3547,14.1559 183.94915,14.1559 C184.411075,14.1559 184.80505,13.85845 184.958275,13.4386 L186.696175,13.4386 C186.720475,13.4386 186.739375,13.453675 186.757375,13.455475 C186.801925,13.468075 186.8341,13.49215 186.871675,13.530625 C186.896875,13.561225 186.926575,13.5961 186.94345,13.642675 C186.94345,13.651675 186.94615,13.67395 186.94615,13.67395 L186.94615,16.0567 C186.545875,16.215325 186.273625,16.6021 186.273625,17.04985 C186.273625,17.6407 186.747475,18.117925 187.33945,18.117925 C187.941775,18.117925 188.4109,17.6407 188.4109,17.04985 C188.4109,16.640575 188.172175,16.276975 187.837825,16.095175 L187.837825,13.70635 C187.837825,13.6024 187.82455,13.51195 187.80115,13.4116 Z M174.325,9.3616 C174.2998,9.43675 174.2872,9.5119 174.2728,9.60505 L174.268525,13.223725 C174.268525,13.279075 174.268525,13.30855 174.277525,13.34905 C174.2998,13.51195 174.35605,13.664275 174.454825,13.805575 C174.56215,13.924825 174.6913,14.02585 174.8308,14.076925 C174.907075,14.1064 174.9883,14.1307 175.06885,14.1343 C175.107325,14.1469 175.140625,14.1469 175.1719,14.1469 L180.43015,14.1469 L180.519475,14.1469 C180.559975,14.1343 180.600025,14.1307 180.6385,14.1217 C180.795325,14.092225 180.94225,14.020675 181.054075,13.915825 C181.180525,13.805575 181.263775,13.664275 181.314625,13.51195 C181.338025,13.4278 181.3414,13.34905 181.3414,13.2604 L181.3414,9.207475 C181.765975,9.05695 182.070625,8.6659 182.070625,8.19475 C182.070625,7.600075 181.589575,7.12825 180.9967,7.12825 C180.40855,7.12825 179.930425,7.600075 179.930425,8.19475 C179.930425,8.6659 180.234625,9.064375 180.6637,9.207475 L180.6637,13.2478 C180.6637,13.279075 180.661,13.289875 180.6529,13.30855 C180.6385,13.34905 180.61735,13.380325 180.59395,13.4053 C180.569875,13.4278 180.525775,13.4386 180.477625,13.455475 L180.43015,13.455475 L175.140625,13.455475 C175.118125,13.455475 175.107325,13.453675 175.08235,13.4386 C175.055575,13.4278 175.0306,13.4053 175.0009,13.380325 C174.9748,13.34905 174.964225,13.30855 174.952525,13.279075 L174.952525,13.2298 L174.952525,9.655225 C174.952525,9.655225 174.964225,9.61315 174.969625,9.594475 C174.9748,9.562975 175.0009,9.5326 175.0306,9.504925 C175.06885,9.484225 175.09135,9.468025 175.129825,9.460825 L175.1971,9.460825 L176.092375,9.460825 C176.227825,9.8899 176.627875,10.204225 177.110725,10.204225 C177.7027,10.204225 178.1788,9.7216 178.1788,9.130525 C178.1788,8.55205 177.7027,8.065825 177.110725,8.065825 C176.644975,8.065825 176.2537,8.36305 176.112175,8.775925 L175.1719,8.775925 C175.125325,8.775925 175.075375,8.783125 175.0306,8.783125 C174.8713,8.8054 174.720775,8.875375 174.597025,8.980225 C174.4735,9.07495 174.37675,9.214675 174.325,9.3616 Z M186.25045,4.632775 L186.25855,6.188875 C186.262825,6.40375 186.3553,6.61255 186.4939,6.76645 C186.634525,6.916975 186.8341,7.021825 187.0447,7.0459 C187.084075,7.0531 187.136725,7.0531 187.1815,7.0531 L188.665375,7.0531 L188.74615,7.0531 C188.7655,7.0657 188.7844,7.0684 188.806,7.084375 C188.846275,7.108675 188.88025,7.16155 188.89645,7.2331 L188.89645,9.3616 C188.54275,9.5326 188.2966,9.8989 188.2966,10.31965 C188.2966,10.911625 188.774725,11.38525 189.360175,11.38525 C189.95035,11.38525 190.4341,10.911625 190.4341,10.31965 C190.4341,9.80035 190.0669,9.372175 189.580675,9.27565 L189.580675,7.284175 L189.580675,7.182025 C189.580675,7.12825 189.57325,7.084375 189.553,7.021825 C189.5017,6.823825 189.372775,6.64225 189.204475,6.523 C189.114025,6.465625 189.020875,6.411175 188.91265,6.390475 C188.867875,6.383275 188.812975,6.372475 188.759425,6.3601 L188.665375,6.3601 L187.173625,6.3601 L187.11985,6.3601 C187.084075,6.352 187.0294,6.3358 186.993625,6.295525 C186.965725,6.24985 186.94345,6.213175 186.94345,6.1801 L186.94345,5.92315 L186.94345,4.616575 C186.94345,4.5763 186.96055,4.527925 186.993625,4.48405 C187.0159,4.450975 187.065175,4.4179 187.11985,4.4125 C187.125925,4.3999 187.166425,4.3999 187.1941,4.3999 L187.7512,4.3999 L187.848625,4.3999 C188.061925,4.387525 188.259025,4.293475 188.4109,4.15015 C188.55895,3.999625 188.655475,3.78925 188.669875,3.59035 C188.676175,3.555475 188.676175,3.5224 188.676175,3.5224 L188.676175,2.2624 C189.09085,2.1121 189.39505,1.728025 189.39505,1.256875 C189.39505,0.6658 188.91445,0.184975 188.329675,0.184975 C187.7368,0.184975 187.251475,0.6658 187.251475,1.256875 C187.251475,1.728025 187.5667,2.126275 187.986775,2.2696 L187.986775,3.485725 L187.986775,3.5323 C187.986775,3.5323 187.958875,3.62725 187.932775,3.653125 C187.890025,3.6934 187.84525,3.7123 187.777075,3.722875 L187.726,3.7123 L187.213,3.722875 L187.173625,3.7123 C187.11265,3.7123 187.050775,3.722875 186.981025,3.737275 C186.77155,3.77035 186.58885,3.887575 186.455425,4.0417 C186.3256,4.2163 186.25045,4.4206 186.25045,4.632775 Z M215.6737,35.650825 C215.211775,35.283625 214.53475,35.367775 214.17295,35.831725 C214.128175,35.899675 214.097575,35.97145 214.0519,36.0286 L211.654075,36.0286 L211.5841,36.0286 L211.54405,36.0286 C211.4698,36.0286 211.386325,36.0286 211.294075,36.0601 C211.152775,36.085075 211.02025,36.13525 210.898525,36.214 C210.656425,36.394 210.48475,36.652075 210.45145,36.9331 C210.436375,37.01185 210.436375,37.0834 210.436375,37.138075 L210.436375,37.19365 C210.26245,37.2688 210.10945,37.37545 209.9911,37.527775 C209.628625,37.9915 209.720875,38.671225 210.173125,39.035725 C210.64315,39.3991 211.321075,39.30595 211.68715,38.846725 C212.04625,38.380975 211.957825,37.704175 211.498375,37.344175 C211.396225,37.270825 211.294075,37.219525 211.191025,37.18285 L211.191025,37.138075 C211.191025,37.1095 211.191025,37.0834 211.200025,37.059325 C211.214425,36.964375 211.2592,36.889225 211.33525,36.84355 C211.36405,36.824875 211.411525,36.804175 211.453375,36.789775 C211.474975,36.778975 211.51885,36.778975 211.568125,36.778975 L213.98755,36.778975 C214.0519,36.997675 214.18105,37.19185 214.36825,37.335175 C214.838275,37.696075 215.5099,37.620925 215.8618,37.146175 C216.227875,36.67975 216.13855,36.009925 215.6737,35.650825 Z M203.777725,32.541775 C203.3113,32.1829 202.641475,32.270425 202.271575,32.736175 C201.9064,33.2026 201.98965,33.876025 202.455175,34.241425 C202.9243,34.593325 203.603125,34.510975 203.964925,34.050625 C203.987425,34.01395 204.0106,33.979075 204.031975,33.9442 L208.89985,33.9442 C208.9417,33.9442 208.9777,33.9442 209.002675,33.9289 C209.06095,33.9289 209.1217,33.9289 209.183575,33.9073 C209.305525,33.876025 209.41555,33.83215 209.5096,33.7498 C209.720875,33.611875 209.8651,33.406 209.92855,33.165925 C209.93665,33.116875 209.95915,33.0469 209.95915,33.0469 C209.967925,32.95465 209.967925,32.907175 209.967925,32.907175 L209.967925,32.805925 C210.141625,32.737975 210.29845,32.625925 210.427375,32.468425 C210.785575,32.0047 210.7048,31.333075 210.24445,30.974875 C209.77465,30.602275 209.093125,30.694525 208.734025,31.165675 C208.364125,31.6285 208.458175,32.301925 208.923925,32.663725 C209.01775,32.736175 209.1217,32.78815 209.22475,32.815825 L209.22475,32.908975 C209.22475,32.926075 209.22475,32.94025 209.20945,32.96995 C209.19775,33.0334 209.146,33.105175 209.093125,33.14725 C209.06095,33.16435 209.033275,33.174925 208.9858,33.190225 C208.9777,33.190225 208.9507,33.1972 208.9309,33.2026 L208.885225,33.2026 L204.169,33.2026 C204.122425,32.95465 203.987425,32.716375 203.777725,32.541775 Z M208.2424,36.885625 C208.71265,37.242925 209.376175,37.167775 209.74315,36.69325 C210.10945,36.223 210.0154,35.553175 209.548075,35.189575 C209.093125,34.8208 208.4188,34.90945 208.0525,35.377 C207.99535,35.457325 207.952375,35.5363 207.923575,35.61955 L202.16965,35.61955 C202.13815,35.61955 202.102375,35.61415 202.078075,35.59885 C202.025425,35.582875 201.97615,35.5363 201.944875,35.479825 C201.931375,35.457325 201.931375,35.42515 201.931375,35.42515 C201.922375,35.369575 201.922375,35.3608 201.922375,35.3608 L201.922375,34.949725 L201.922375,34.7974 C201.8956,34.589725 201.78895,34.38475 201.63505,34.2664 C201.488125,34.1296 201.27955,34.050625 201.07075,34.050625 L198.039775,34.050625 C197.846275,33.7498 197.517775,33.5563 197.1364,33.5563 C196.543525,33.5563 196.070575,34.04095 196.070575,34.6192 C196.070575,35.222875 196.543525,35.6947 197.1364,35.6947 C197.72725,35.6947 198.201775,35.23705 198.2056,34.650475 L201.07615,34.650475 C201.133525,34.650475 201.1909,34.677475 201.230275,34.71685 C201.27955,34.750825 201.312625,34.8046 201.3286,34.869175 L201.3286,34.930825 L201.3286,35.3473 L201.3286,35.457325 C201.336025,35.560375 201.3601,35.659825 201.41365,35.752975 C201.502525,35.936575 201.669025,36.085075 201.858025,36.160225 C201.962875,36.198925 202.0549,36.214 202.15975,36.214 L207.840325,36.223 C207.895,36.47455 208.027525,36.711025 208.2424,36.885625 Z M220.224325,26.173375 C219.7588,25.8082 219.09595,25.89595 218.724475,26.367775 C218.368075,26.822725 218.44435,27.49975 218.909875,27.866725 C218.975125,27.9214 219.037225,27.952675 219.10405,27.989575 L219.10405,28.138075 C219.10405,28.215025 219.0649,28.295575 219.025525,28.34935 C218.963425,28.407625 218.898175,28.4506 218.817625,28.4524 L218.754175,28.4524 L216.5656,28.4524 C216.266575,28.4524 215.965525,28.567825 215.743675,28.758625 C215.5153,28.9636 215.364775,29.24845 215.313925,29.547475 C215.3119,29.626225 215.3119,29.7034 215.3119,29.75875 L215.3119,32.61715 C215.136625,32.6851 214.9636,32.80255 214.849075,32.95465 C214.484575,33.4267 214.568725,34.1017 215.03785,34.4545 C215.4991,34.819 216.177025,34.74385 216.540625,34.2691 C216.899725,33.799075 216.81535,33.122275 216.345325,32.77105 C216.321025,32.744275 216.28435,32.736175 216.255775,32.710975 L216.255775,29.745475 C216.255775,29.745475 216.255775,29.7034 216.262075,29.657725 C216.266575,29.60035 216.30685,29.5252 216.374125,29.472325 C216.428575,29.42845 216.502825,29.39695 216.5791,29.39695 L218.78185,29.39695 L218.909875,29.39695 C219.2125,29.362075 219.510625,29.22415 219.702325,29.002075 C219.9163,28.780225 220.044325,28.468375 220.04905,28.153375 L220.04905,27.976975 C220.18495,27.9016 220.315675,27.80215 220.415125,27.67075 C220.774225,27.2176 220.69165,26.537875 220.224325,26.173375 Z M220.33165,22.653475 C220.315675,22.565725 220.295875,22.477975 220.263925,22.400125 C220.21645,22.2334 220.0981,22.0921 219.9541,21.98725 C219.80605,21.8833 219.62785,21.82615 219.457975,21.82615 L219.002125,21.82615 C218.93665,21.668425 218.826625,21.512725 218.6779,21.404275 C218.207875,21.044275 217.538725,21.12325 217.17445,21.587875 C216.81535,22.0606 216.899725,22.721425 217.36345,23.097625 C217.8265,23.455825 218.5087,23.370775 218.875,22.89805 C218.963425,22.7788 219.0298,22.6303 219.061075,22.488775 L219.45145,22.488775 C219.498925,22.488775 219.5356,22.504975 219.5752,22.52545 C219.610975,22.556725 219.63235,22.5916 219.65125,22.624 C219.65755,22.653475 219.66205,22.666975 219.66205,22.666975 L219.66205,22.749325 L219.66205,23.440525 C219.498925,23.5105 219.32455,23.607925 219.2125,23.77825 C218.849125,24.242875 218.919775,24.9145 219.3889,25.2763 C219.86185,25.642375 220.537525,25.547425 220.902925,25.0864 C221.25775,24.622675 221.176975,23.94925 220.70605,23.58205 C220.588825,23.4925 220.459,23.433325 220.33165,23.39305 L220.33165,22.653475 Z M249.2779,60.159175 C248.276875,61.034875 246.18145,61.07695 244.3333,61.41625 C242.484925,61.79245 240.808675,62.425375 240.808675,64.60135 C240.808675,66.8293 242.5351,67.3729 244.455925,67.3729 C249.1105,67.3729 249.2779,63.679075 249.2779,62.376325 L249.2779,60.159175 Z M249.2779,55.41415 C249.2779,52.855 247.521775,52.477 245.423875,52.477 C243.16285,52.477 241.690675,53.399275 241.4839,55.748275 L235.522975,55.748275 C235.859575,50.1739 240.842875,48.48415 245.7094,48.48415 C250.04335,48.48415 255.24355,49.455025 255.24355,54.656575 L255.24355,65.941 C255.24355,67.921675 255.451,69.884575 256,70.774675 L249.9601,70.774675 C249.746125,70.09585 249.582325,69.38935 249.53665,68.677225 C247.647325,70.640125 244.879375,71.358325 242.23,71.358325 C238.1251,71.358325 234.84505,69.3034 234.84505,64.849525 C234.84505,59.939575 238.540675,58.77205 242.23,58.271425 C245.8804,57.72085 249.2779,57.847075 249.2779,55.41415 Z M212.694475,49.084225 L220.1233,70.774675 L226.754725,70.774675 L234.095575,49.084225 L228.17785,49.084225 L223.602025,63.89395 L223.516075,63.89395 L218.95105,49.084225 L212.694475,49.084225 Z M204.8899,70.77445 L210.85195,70.77445 L210.85195,49.084225 L204.8899,49.084225 L204.8899,70.77445 Z M202.67095,66.159475 C202.039825,66.2812 201.45865,66.321475 200.8255,66.321475 C198.81445,66.321475 198.302125,65.811175 198.302125,63.8071 L198.302125,53.063575 L202.67095,53.063575 L202.67095,49.084225 L198.302125,49.084225 L198.302125,42.575425 L192.358975,42.575425 L192.358975,49.084225 L188.73445,49.084225 L188.73445,53.063575 L192.358975,53.063575 L192.358975,65.86045 C192.358975,70.186975 195.545875,71.018125 199.185025,71.018125 C200.36245,71.018125 201.660025,70.98145 202.67095,70.80955 L202.67095,66.159475 Z M180.896575,70.77445 L186.8449,70.77445 L186.8449,49.084225 L180.896575,49.084225 L180.896575,70.77445 Z M176.9881,70.774675 L176.9881,57.4306 C176.9881,52.06165 175.394875,48.48415 169.06045,48.48415 C166.540675,48.48415 163.930675,49.6654 162.4315,52.094725 L162.310675,52.094725 L162.310675,49.084225 L156.647875,49.084225 L156.647875,70.774675 L162.595525,70.774675 L162.595525,59.395975 C162.595525,55.001275 163.98265,53.1997 167.2159,53.1997 C169.98565,53.1997 171.02875,54.9574 171.02875,58.526575 L171.02875,70.774675 L176.9881,70.774675 Z M146.98795,59.65315 C146.98795,56.12965 145.777225,52.986625 141.9205,52.986625 C138.557425,52.986625 137.09695,55.91905 137.09695,59.146225 C137.09695,62.258875 138.263575,65.65345 141.9205,65.65345 C145.3081,65.65345 146.98795,62.7541 146.98795,59.65315 Z M146.98795,49.084225 L152.65705,49.084225 L152.65705,69.38935 C152.65705,72.952225 151.40515,79 141.4138,79 C137.134525,79 132.13975,76.98175 131.8504,72.02815 L137.760475,72.02815 C138.30565,74.2534 140.10835,75.010975 142.20715,75.010975 C145.516675,75.010975 147.038125,72.74005 146.98795,69.6382 L146.98795,66.790825 L146.9119,66.790825 C145.608025,69.05185 143.0113,70.136125 140.404675,70.136125 C133.90375,70.136125 131.131525,65.1904 131.131525,59.2234 C131.131525,53.61235 134.362975,48.48415 140.44045,48.48415 C143.303125,48.48415 145.4782,49.455025 146.9119,51.9757 L146.98795,51.9757 L146.98795,49.084225 Z M122.791225,59.939575 C122.791225,56.46715 121.568125,52.986625 117.501025,52.986625 C113.4688,52.986625 112.2547,56.46715 112.2547,59.939575 C112.2547,63.38545 113.4688,66.871375 117.501025,66.871375 C121.568125,66.871375 122.791225,63.38545 122.791225,59.939575 Z M128.736175,59.939575 C128.736175,66.8293 124.33855,71.358325 117.501025,71.358325 C110.695675,71.358325 106.29535,66.8293 106.29535,59.939575 C106.29535,53.0233 110.695675,48.48415 117.501025,48.48415 C124.33855,48.48415 128.736175,53.0233 128.736175,59.939575 Z M90.723775,65.941 C84.8128,65.941 82.589575,60.905725 82.589575,55.91905 C82.589575,50.674525 84.8128,45.644875 90.723775,45.644875 C94.0045,45.644875 96.8566,47.9005 97.274875,50.882425 L103.65385,50.882425 C102.8605,43.964125 97.31065,40.102 90.723775,40.102 C81.4612,40.102 76,47.020975 76,55.91905 C76,64.563775 81.4612,71.48095 90.723775,71.48095 C98.066425,71.48095 103.2313,66.70285 103.8982,59.2234 L97.518325,59.2234 C97.0285,63.17755 94.757575,65.941 90.723775,65.941 Z M181.065775,44.254375 C181.065775,45.8017 182.32645,47.054275 183.874675,47.054275 C185.4292,47.054275 186.6784,45.8017 186.6784,44.254375 C186.6784,42.70615 185.4292,41.44705 183.874675,41.44705 C182.32645,41.44705 181.065775,42.70615 181.065775,44.254375 Z" id="COGNITIVA-LOGO"></path>
            </g>
        </g>
    </g>
</svg>