<?xml version="1.0" encoding="UTF-8"?>
<svg width="50px" height="50px" viewBox="0 0 50 50" version="1.1" xmlns="http://www.w3.org/2000/svg" xmlns:xlink="http://www.w3.org/1999/xlink">
    <!-- Generator: Sketch 52.3 (67297) - http://www.bohemiancoding.com/sketch -->
    <title>Group 10</title>
    <desc>Created with Sketch.</desc>
    <defs>
        <polygon id="path-1" points="0.000208333333 0 49.9770833 0 49.9770833 50 0.000208333333 50"></polygon>
    </defs>
    <g id="Symbols" stroke="none" stroke-width="1" fill="none" fill-rule="evenodd">
        <g id="header_bg" transform="translate(-80.000000, -15.000000)">
            <g id="Group-10" transform="translate(80.000000, 15.000000)">
                <path d="M37.795,23.6827083 L11.7970833,23.6827083 C10.3033333,23.6827083 10.3033333,26.0035417 11.7970833,26.0035417 L37.795,26.0035417 C39.2908333,26.0035417 39.2908333,23.6827083 37.795,23.6827083" id="Fill-1" fill="#FFFFFF"></path>
                <path d="M37.795,13.39625 L11.7970833,13.39625 C10.3033333,13.39625 10.3033333,15.7170833 11.7970833,15.7170833 L37.795,15.7170833 C39.2908333,15.7170833 39.2908333,13.39625 37.795,13.39625" id="Fill-3" fill="#FFFFFF"></path>
                <path d="M37.795,33.3810417 L11.7970833,33.3810417 C10.3033333,33.3810417 10.3033333,35.701875 11.7970833,35.701875 L37.795,35.701875 C39.2908333,35.701875 39.2908333,33.3810417 37.795,33.3810417" id="Fill-5" fill="#FFFFFF"></path>
                <g id="Group-9">
                    <mask id="mask-2" fill="white">
                        <use xlink:href="#path-1"></use>
                    </mask>
                    <g id="Clip-8"></g>
                    <path d="M24.9897917,47.525 C12.5752083,47.525 2.473125,37.4208333 2.473125,25.0020833 C2.473125,12.58125 12.5752083,2.475 24.9897917,2.475 C37.404375,2.475 47.504375,12.58125 47.504375,25.0020833 C47.504375,37.4208333 37.404375,47.525 24.9897917,47.525 M49.9772917,25.0020833 C49.9772917,11.2166667 38.766875,0 24.9897917,0 C11.210625,0 0.000208333333,11.2166667 0.000208333333,25.0020833 C0.000208333333,38.7854167 11.210625,50 24.9897917,50 C38.766875,50 49.9772917,38.7854167 49.9772917,25.0020833" id="Fill-7" fill="#FFFFFF" mask="url(#mask-2)"></path>
                </g>
            </g>
        </g>
    </g>
</svg>