<?xml version="1.0" encoding="UTF-8"?>
<svg width="331px" height="105px" viewBox="0 0 331 105" version="1.1" xmlns="http://www.w3.org/2000/svg" xmlns:xlink="http://www.w3.org/1999/xlink">
    <!-- Generator: Sketch 52.3 (67297) - http://www.bohemiancoding.com/sketch -->
    <title>Logo</title>
    <desc>Created with Sketch.</desc>
    <defs>
        <polygon id="path-1" points="0.743944693 0.138789474 10.7885927 0.138789474 10.7885927 13.7368421 0.743944693 13.7368421"></polygon>
        <polygon id="path-3" points="0 105 330.839123 105 330.839123 0.0773684211 0 0.0773684211"></polygon>
        <polygon id="path-5" points="0.818616 0.198576 44.956536 0.198576 44.956536 44.35784 0.818616 44.35784"></polygon>
    </defs>
    <g id="Interfaz" stroke="none" stroke-width="1" fill="none" fill-rule="evenodd">
        <g id="Login" transform="translate(-125.000000, -156.000000)">
            <g id="Logo" transform="translate(125.000000, 156.000000)">
                <polygon id="Fill-1" fill="#65768E" points="46 59 50 59 50 0 46 0"></polygon>
                <g id="Group-37">
                    <path d="M79.5483609,20.4519737 C75.5541709,20.4519737 72.3495732,21.7635526 69.9327184,24.3867105 C67.5158637,27.0098684 66.1031039,30.7917105 65.6962883,35.7340789 L91.340467,35.7340789 C91.340467,30.9446053 90.2956905,27.1996053 88.2116849,24.5009211 C86.123981,21.8022368 83.2374391,20.4519737 79.5483609,20.4519737 M80.6560089,59.9872368 C74.6258916,59.9872368 69.9253218,58.1359211 66.5561486,54.4351316 C63.1832771,50.7361842 61.4986905,45.5543421 61.4986905,38.8896053 C61.4986905,32.3003947 63.1278022,27.0227632 66.3841765,23.0567105 C69.6405508,19.0906579 74.0286123,17.1067105 79.5483609,17.1067105 C84.4338469,17.1067105 88.2875006,18.8051316 91.1111709,22.2001316 C93.9348413,25.5969737 95.345752,30.2096053 95.345752,36.0380263 L95.345752,39.0793421 L65.4688413,39.0793421 C65.5187687,44.7567105 66.8483162,49.0893421 69.4556346,52.0790789 C72.0629531,55.0706579 75.7964112,56.5646053 80.6560089,56.5646053 C83.0210872,56.5646053 85.1013944,56.4006579 86.8950816,56.0709211 C88.6869196,55.7411842 90.9576905,55.0319737 93.7055453,53.9432895 L93.7055453,57.3640789 C91.3645061,58.3772368 89.2028358,59.0680263 87.2186849,59.4346053 C85.2345341,59.8011842 83.0469754,59.9872368 80.6560089,59.9872368" id="Fill-2" fill="#65768E"></path>
                    <polygon id="Fill-4" fill="#65768E" points="116.976694 37.9762895 102.514398 17.9047105 106.863627 17.9047105 119.227125 35.3162895 131.477823 17.9047105 135.636588 17.9047105 121.403588 37.9762895 136.666572 59.2268158 132.27851 59.2268158 119.227125 40.7891842 106.101773 59.2268158 101.941158 59.2268158"></polygon>
                    <path d="M174.609527,59.2262632 L174.609527,32.4273158 C174.609527,28.2696842 173.731175,25.2486316 171.978169,23.3604737 C170.221465,21.4723158 167.499499,20.5291579 163.810421,20.5291579 C158.850968,20.5291579 155.219214,21.7762632 152.917007,24.2723158 C150.612951,26.7683684 149.462773,30.8173158 149.462773,36.4191579 L149.462773,59.2262632 L145.684935,59.2262632 L145.684935,17.906 L148.891382,17.906 L149.616253,23.5704737 L149.8437,23.5704737 C152.539778,19.2617895 157.336504,17.1065263 164.23018,17.1065263 C173.644264,17.1065263 178.348532,22.1373158 178.348532,32.1988947 L178.348532,59.2262632 L174.609527,59.2262632 Z" id="Fill-6" fill="#65768E"></path>
                    <path d="M241.403293,59.2262632 L225.376606,17.906 L229.269092,17.906 L239.990533,45.9981053 C241.416237,49.5957368 242.485053,52.7402105 243.19698,55.426 L243.426276,55.426 C244.469203,51.9775789 245.53617,48.811 246.630874,45.9207368 L257.354164,17.906 L261.244801,17.906 L245.218114,59.2262632 L241.403293,59.2262632 Z" id="Fill-8" fill="#65768E"></path>
                    <path d="M278.10657,56.5655263 C282.533464,56.5655263 286.024682,55.3036842 288.582073,52.7818421 C291.137615,50.2618421 292.415385,46.7581579 292.415385,42.2726316 L292.415385,38.2052632 L285.164821,38.5092105 C279.339961,38.7873684 275.186743,39.6936842 272.707017,41.2263158 C270.225441,42.7607895 268.986503,45.1481579 268.986503,48.3921053 C268.986503,50.9784211 269.781642,52.9863158 271.370073,54.4176316 C272.962201,55.8489474 275.207084,56.5655263 278.10657,56.5655263 Z M293.371402,59.2255263 L292.415385,52.6878947 L292.110274,52.6878947 C290.024419,55.3497368 287.88124,57.2305263 285.682587,58.3321053 C283.480235,59.4355263 280.878464,59.9863158 277.877274,59.9863158 C273.807268,59.9863158 270.639654,58.9473684 268.376279,56.8694737 C266.112905,54.7915789 264.979369,51.9160526 264.979369,48.2392105 C264.979369,44.2105263 266.665804,41.0807895 270.036827,38.85 C273.406,36.6210526 278.284089,35.4421053 284.671095,35.315 L292.568866,35.0865789 L292.568866,32.3492105 C292.568866,28.4236842 291.768179,25.4578947 290.164955,23.4555263 C288.561732,21.4531579 285.980302,20.4528947 282.418816,20.4528947 C278.578106,20.4528947 274.59686,21.5176316 270.475078,23.6452632 L269.062318,20.3755263 C273.614955,18.2478947 278.119514,17.1831579 282.570447,17.1831579 C287.124933,17.1831579 290.527391,18.3621053 292.77967,20.7181579 C295.030101,23.0742105 296.15624,26.7492105 296.15624,31.7413158 L296.15624,59.2255263 L293.371402,59.2255263 Z" id="Fill-10" fill="#65768E"></path>
                    <polygon id="Fill-12" fill="#65768E" points="5.7479352 104.818368 4.20573408 104.818368 4.20573408 92.9588947 0.000739664804 92.9588947 0.000739664804 91.5920526 9.95292961 91.5920526 9.95292961 92.9588947 5.7479352 92.9588947"></polygon>
                    <polygon id="Fill-14" fill="#65768E" points="29.7572698 104.818368 22.3569235 104.818368 22.3569235 91.5920526 29.7572698 91.5920526 29.7572698 92.9588947 23.9009737 92.9588947 23.9009737 97.2196842 29.4040799 97.2196842 29.4040799 98.5754737 23.9009737 98.5754737 23.9009737 103.444158 29.7572698 103.444158"></polygon>
                    <g id="Group-18" transform="translate(41.681564, 91.263158)">
                        <mask id="mask-2" fill="white">
                            <use xlink:href="#path-1"></use>
                        </mask>
                        <g id="Clip-17"></g>
                        <path d="M7.11985531,1.51484211 C5.66086648,1.51484211 4.50883855,1.99931579 3.66377151,2.96642105 C2.81870447,3.93352632 2.39709553,5.25984211 2.39709553,6.94168421 C2.39709553,8.67326316 2.80576034,10.0106316 3.61754246,10.9537895 C4.43302291,11.8987895 5.59429665,12.3703684 7.10136369,12.3703684 C8.02779385,12.3703684 9.08366536,12.2045789 10.2708274,11.873 L10.2708274,13.2195789 C9.34994469,13.5640526 8.21455922,13.7372105 6.86467095,13.7372105 C4.9101067,13.7372105 3.4011905,13.1440526 2.33792235,11.9632632 C1.27650335,10.7806316 0.743944693,9.10063158 0.743944693,6.92510526 C0.743944693,5.56010526 0.99912905,4.36826316 1.51134693,3.34221053 C2.0235648,2.318 2.76322961,1.52589474 3.72849218,0.971421053 C4.69375475,0.416947368 5.82914022,0.138789474 7.13834693,0.138789474 C8.53076592,0.138789474 9.74566536,0.393 10.7885927,0.899578947 L10.1339894,2.22036842 C9.12989441,1.74878947 8.12395028,1.51484211 7.11985531,1.51484211" id="Fill-16" fill="#65768E" mask="url(#mask-2)"></path>
                    </g>
                    <path d="M75.6333151,104.818368 L73.8710637,104.818368 L66.6168011,93.7196842 L66.5428346,93.7196842 C66.6408402,95.0220526 66.6889184,96.2157368 66.6889184,97.3007368 L66.6889184,104.818368 L65.2632145,104.818368 L65.2632145,91.5920526 L67.0069743,91.5920526 L74.2445944,102.646526 L74.3167117,102.646526 C74.3037676,102.484421 74.2778793,101.961263 74.2353486,101.078895 C74.1928179,100.194684 74.1780246,99.561 74.1891196,99.1815263 L74.1891196,91.5920526 L75.6333151,91.5920526 L75.6333151,104.818368 Z" id="Fill-19" fill="#65768E"></path>
                    <path d="M90.6296492,98.1875263 C90.6296492,99.9798947 91.0124257,101.337526 91.7779788,102.262263 C92.5435318,103.188842 93.6567274,103.651211 95.1157162,103.651211 C96.5858,103.651211 97.6971464,103.190684 98.4479061,102.267789 C99.1986659,101.344895 99.5740458,99.9854211 99.5740458,98.1875263 C99.5740458,96.4080526 99.2005151,95.0596316 98.4516045,94.1404211 C97.704543,93.2193684 96.5987441,92.7606842 95.1342078,92.7606842 C93.6622749,92.7606842 92.5435318,93.2230526 91.7779788,94.1496316 C91.0124257,95.0743684 90.6296492,96.4209474 90.6296492,98.1875263 M101.208705,98.1875263 C101.208705,100.304105 100.670599,101.969368 99.5962358,103.181474 C98.5218726,104.393579 97.0277497,104.999632 95.1157162,104.999632 C93.1593028,104.999632 91.6503866,104.404632 90.5889676,103.212789 C89.5256994,102.020947 88.9949899,100.340947 88.9949899,98.1691053 C88.9949899,96.0156842 89.5275486,94.3467368 90.5926659,93.1604211 C91.6577832,91.9777895 93.1722469,91.3846316 95.1342078,91.3846316 C97.0406939,91.3846316 98.5292693,91.9888421 99.6017832,93.1935789 C100.672448,94.4001579 101.208705,96.0654211 101.208705,98.1875263" id="Fill-21" fill="#65768E"></path>
                    <polygon id="Fill-23" fill="#65768E" points="114.583879 104.818368 114.583879 91.5920526 116.12608 91.5920526 116.12608 103.425737 121.984225 103.425737 121.984225 104.818368"></polygon>
                    <path d="M135.594612,98.1875263 C135.594612,99.9798947 135.977389,101.337526 136.742942,102.262263 C137.508495,103.188842 138.621691,103.651211 140.080679,103.651211 C141.550763,103.651211 142.662109,103.190684 143.412869,102.267789 C144.163629,101.344895 144.539009,99.9854211 144.539009,98.1875263 C144.539009,96.4080526 144.165478,95.0596316 143.416568,94.1404211 C142.669506,93.2193684 141.563707,92.7606842 140.099171,92.7606842 C138.627238,92.7606842 137.508495,93.2230526 136.742942,94.1496316 C135.977389,95.0743684 135.594612,96.4209474 135.594612,98.1875263 M146.173668,98.1875263 C146.173668,100.304105 145.635562,101.969368 144.561199,103.181474 C143.486836,104.393579 141.992713,104.999632 140.080679,104.999632 C138.124266,104.999632 136.61535,104.404632 135.553931,103.212789 C134.490663,102.020947 133.959953,100.340947 133.959953,98.1691053 C133.959953,96.0156842 134.492512,94.3467368 135.557629,93.1604211 C136.622746,91.9777895 138.13721,91.3846316 140.099171,91.3846316 C142.005657,91.3846316 143.494232,91.9888421 144.566746,93.1935789 C145.637411,94.4001579 146.173668,96.0654211 146.173668,98.1875263" id="Fill-25" fill="#65768E"></path>
                    <path d="M165.388126,97.8887368 L169.900081,97.8887368 L169.900081,104.319526 C169.199249,104.542421 168.483623,104.711895 167.758751,104.827947 C167.032031,104.942158 166.190662,104.999263 165.234645,104.999263 C163.222757,104.999263 161.658366,104.404263 160.537774,103.212421 C159.417182,102.020579 158.858735,100.353474 158.858735,98.2055789 C158.858735,96.8313684 159.136109,95.6247895 159.689008,94.5913684 C160.243757,93.5561053 161.040746,92.7676842 162.081824,92.2205789 C163.122902,91.6753158 164.343349,91.4026842 165.741316,91.4026842 C167.159623,91.4026842 168.478075,91.6624211 169.702221,92.1800526 L169.101243,93.5376842 C167.902986,93.0311053 166.749109,92.7787368 165.641461,92.7787368 C164.025293,92.7787368 162.764165,93.2558421 161.854377,94.2155789 C160.946439,95.1734737 160.493394,96.5053158 160.493394,98.2055789 C160.493394,99.9905789 160.929796,101.344526 161.806299,102.267421 C162.680953,103.190316 163.964271,103.650842 165.659953,103.650842 C166.580835,103.650842 167.479528,103.545842 168.356031,103.334 L168.356031,99.2629474 L165.388126,99.2629474 L165.388126,97.8887368 Z" id="Fill-27" fill="#65768E"></path>
                    <mask id="mask-4" fill="white">
                        <use xlink:href="#path-3"></use>
                    </mask>
                    <g id="Clip-30"></g>
                    <path d="M183.494196,104.819474 L185.038246,104.819474 L185.038246,91.5931579 L183.494196,91.5931579 L183.494196,104.819474 Z M183.294486,90.3073684 C183.584804,89.9334211 183.899162,89.4821053 184.23386,88.9515789 C184.570408,88.4210526 184.834838,87.9586842 185.029,87.5663158 L186.86152,87.5663158 L186.86152,87.7578947 C186.597089,88.1502632 186.19952,88.6310526 185.674358,89.2039474 C185.147346,89.7768421 184.688754,90.2207895 184.30043,90.5339474 L183.294486,90.5339474 L183.294486,90.3073684 Z" id="Fill-29" fill="#65768E" mask="url(#mask-4)"></path>
                    <path d="M205.306726,99.2272105 L203.764525,95.1285263 C203.564815,94.6108947 203.357709,93.9735263 203.146904,93.2201053 C203.013765,93.8003684 202.821452,94.4358947 202.573664,95.1285263 L201.012972,99.2272105 L205.306726,99.2272105 Z M207.440659,104.818 L205.789357,100.612474 L200.467469,100.612474 L198.832809,104.818 L197.270268,104.818 L202.520039,91.5382632 L203.81815,91.5382632 L209.040184,104.818 L207.440659,104.818 Z" id="Fill-31" fill="#65768E" mask="url(#mask-4)"></path>
                    <polygon id="Fill-32" fill="#65768E" mask="url(#mask-4)" points="236.498575 104.818368 236.498575 91.5920526 238.042626 91.5920526 238.042626 103.425737 243.898922 103.425737 243.898922 104.818368"></polygon>
                    <polygon id="Fill-33" fill="#65768E" mask="url(#mask-4)" points="263.965103 104.818368 256.564757 104.818368 256.564757 91.5920526 263.965103 91.5920526 263.965103 92.9588947 258.108807 92.9588947 258.108807 97.2196842 263.611913 97.2196842 263.611913 98.5754737 258.108807 98.5754737 258.108807 103.444158 263.965103 103.444158"></polygon>
                    <path d="M283.162918,97.8887368 L287.676723,97.8887368 L287.676723,104.319526 C286.975891,104.542421 286.260265,104.711895 285.533544,104.827947 C284.806823,104.942158 283.965455,104.999263 283.009438,104.999263 C280.999399,104.999263 279.433159,104.404263 278.314416,103.212421 C277.193823,102.020579 276.635377,100.353474 276.635377,98.2055789 C276.635377,96.8313684 276.910902,95.6247895 277.46565,94.5913684 C278.01855,93.5561053 278.815539,92.7676842 279.858466,92.2205789 C280.897695,91.6753158 282.119991,91.4026842 283.516108,91.4026842 C284.934416,91.4026842 286.254717,91.6624211 287.477013,92.1800526 L286.877885,93.5376842 C285.677779,93.0311053 284.525751,92.7787368 283.418103,92.7787368 C281.801935,92.7787368 280.538958,93.2558421 279.631019,94.2155789 C278.72308,95.1734737 278.270036,96.5053158 278.270036,98.2055789 C278.270036,99.9905789 278.706438,101.344526 279.581092,102.267421 C280.455745,103.190316 281.739064,103.650842 283.434745,103.650842 C284.357477,103.650842 285.25617,103.545842 286.132673,103.334 L286.132673,99.2629474 L283.162918,99.2629474 L283.162918,97.8887368 Z" id="Fill-34" fill="#65768E" mask="url(#mask-4)"></path>
                    <path d="M307.480139,99.2272105 L305.937937,95.1285263 C305.738228,94.6108947 305.531122,93.9735263 305.320317,93.2201053 C305.187178,93.8003684 304.994865,94.4358947 304.747077,95.1285263 L303.186384,99.2272105 L307.480139,99.2272105 Z M309.614072,104.818 L307.96277,100.612474 L302.640882,100.612474 L301.006222,104.818 L299.44368,104.818 L304.693451,91.5382632 L305.991563,91.5382632 L311.213597,104.818 L309.614072,104.818 Z" id="Fill-35" fill="#65768E" mask="url(#mask-4)"></path>
                    <polygon id="Fill-36" fill="#65768E" mask="url(#mask-4)" points="323.438037 104.818368 323.438037 91.5920526 324.982087 91.5920526 324.982087 103.425737 330.838383 103.425737 330.838383 104.818368"></polygon>
                </g>
                <g id="Group-47" transform="translate(183.000000, 17.000000)">
                    <g id="Group-40">
                        <mask id="mask-6" fill="white">
                            <use xlink:href="#path-5"></use>
                        </mask>
                        <g id="Clip-39"></g>
                        <path d="M22.889416,44.358576 C10.719656,44.358576 0.818616,34.453856 0.818616,22.280416 C0.818616,10.105136 10.719656,0.198576 22.889416,0.198576 C35.057336,0.198576 44.956536,10.105136 44.956536,22.280416 C44.956536,34.453856 35.057336,44.358576 22.889416,44.358576 M22.889416,2.384496 C11.924856,2.384496 3.002696,11.310336 3.002696,22.280416 C3.002696,33.250496 11.923016,42.174496 22.889416,42.174496 C33.852136,42.174496 42.772456,33.250496 42.772456,22.280416 C42.772456,11.310336 33.852136,2.384496 22.889416,2.384496" id="Fill-38" fill="#B1C949" mask="url(#mask-6)"></path>
                    </g>
                    <path d="M34.198976,21.11496 L11.237616,21.11496 C9.916496,21.11496 9.916496,23.16472 11.237616,23.16472 L34.198976,23.16472 C35.520096,23.16472 35.520096,21.11496 34.198976,21.11496" id="Fill-41" fill="#B1C949"></path>
                    <path d="M34.198976,12.02996 L11.237616,12.02996 C9.916496,12.02996 9.916496,14.07972 11.237616,14.07972 L34.198976,14.07972 C35.520096,14.07972 35.520096,12.02996 34.198976,12.02996" id="Fill-43" fill="#B1C949"></path>
                    <path d="M34.198976,29.681632 L11.237616,29.681632 C9.916496,29.681632 9.916496,31.729552 11.237616,31.729552 L34.198976,31.729552 C35.520096,31.729552 35.520096,29.681632 34.198976,29.681632" id="Fill-45" fill="#B1C949"></path>
                </g>
            </g>
        </g>
    </g>
</svg>