<?xml version="1.0" encoding="UTF-8"?>
<svg width="508px" height="508px" viewBox="0 0 508 508" version="1.1" xmlns="http://www.w3.org/2000/svg" xmlns:xlink="http://www.w3.org/1999/xlink">
    <!-- Generator: Sketch 52.2 (67145) - http://www.bohemiancoding.com/sketch -->
    <title>man</title>
    <desc>Created with Sketch.</desc>
    <defs>
        <polygon id="path-1" points="0.06 0.04 508 0.04 508 508 0.06 508"></polygon>
    </defs>
    <g id="man" stroke="none" stroke-width="1" fill="none" fill-rule="evenodd">
        <g id="Group-3">
            <mask id="mask-2" fill="white">
                <use xlink:href="#path-1"></use>
            </mask>
            <g id="Clip-2"></g>
            <path d="M254,0 C394.28,0 508,113.72 508,254 C508,394.28 394.28,508 254,508 C113.72,508 0,394.28 0,254 C0,113.72 113.72,0 254,0" id="Fill-1" fill="#78A5FF" mask="url(#mask-2)"></path>
        </g>
        <path d="M255.2,362.8 C254.8,362.8 254.4,363.2 254,363.2 C253.6,363.2 253.2,362.8 252.8,362.8 L255.2,362.8" id="Fill-4" fill="#8CD0E9"></path>
        <path d="M451.2,414 C404.8,471.2 333.6,508 254,508 C174.4,508 103.2,471.2 56.8,414 C90,369.6 140.8,347.6 182.4,336.8 C179.2,363.2 192.8,398.4 193.2,397.6 C207.2,365.6 254,362.8 254,362.8 C254,362.8 300.8,365.6 314.4,397.6 C314.8,398.4 328.8,363.2 325.2,336.8 C367.2,347.6 418.4,369.6 451.2,414" id="Fill-5" fill="#D1E27E"></path>
        <path d="M311.2,312 C311.2,312 311.2,312 311.2,312.4 C311.2,316.4 309.2,342 255.2,362.4 L252.8,362.4 C198.8,342 196.8,316.4 196.8,312.4 C196.8,312 196.8,312 196.8,312 C196.8,306.8 198,301.6 199.2,296.4 C214.8,316 233.6,329.2 254,329.2 C274.4,329.2 293.2,316 308.8,296.4 C310,301.6 311.2,306.8 311.2,312" id="Fill-6" fill="#FFF8EA"></path>
        <path d="M311.2,312 C311.2,312 314,340.8 254,363.2 C254,363.2 300.8,366 314.4,398 C315.2,398.8 342,329.2 311.2,312" id="Fill-7" fill="#B5CB4A"></path>
        <path d="M196.8,312 C166,329.2 192.8,398.8 193.6,397.6 C207.6,365.6 254,362.8 254,362.8 C194,340.8 196.8,312 196.8,312" id="Fill-8" fill="#B5CB4A"></path>
        <path d="M338,210.8 C334.4,235.6 323.6,258.8 305.6,276.4 C302,280 298.8,282.8 294.8,285.6 L288.4,265.2 L219.6,265.2 L213.2,285.6 C200.4,276 173.6,249.2 173.2,224 C162,80.4 272,110.8 272,110.8 C346,105.6 343.6,170.8 338,210.8" id="Fill-9" fill="#FFF8EA"></path>
        <path d="M352.8,236.8 C347.2,246 339.6,252.4 332.4,254.8 C335.2,248.4 337.6,241.6 339.6,234.8 C339.6,234.8 339.6,234.8 339.6,234.4 C341.2,228.4 342.8,222.4 344.4,216.4 L344,216.4 C345.6,210.4 347.2,204.4 348.4,198.4 C350,198.4 351.6,199.2 353.2,200 C362,205.6 361.6,222 352.8,236.8" id="Fill-10" fill="#FFF8EA"></path>
        <path d="M175.6,254.8 C168.4,252.4 160.8,246 155.2,236.8 C146,222 146,205.6 154.8,200.4 C155.6,200 156,199.6 156.8,199.6 C161.6,218.4 167.2,232.4 168.4,235.2 C170.4,241.6 172.8,248.4 175.6,254.8" id="Fill-11" fill="#FFF8EA"></path>
        <path d="M338,210.8 C334.4,235.6 323.6,258.8 305.6,276.4 C302,280 298.4,282.8 294.8,285.6 L288.4,265.6 L219.6,265.6 L213.2,286 C200.4,276.4 189.6,263.2 180.8,248 C176.8,240 174.4,231.6 173.2,224.4 C162,80.8 272,111.2 272,111.2 C346,105.6 343.6,170.8 338,210.8 Z M297.6,70.8 C300.8,34 242.4,36.4 242.4,36.4 C154,49.2 144.4,131.6 144.4,131.6 L156.4,117.2 C137.6,158.4 166,229.2 168.4,234.8 C183.2,284 216,329.2 254,329.2 C292,329.2 324.8,284 339.6,234.8 C339.6,234.8 339.6,234.8 339.6,234.4 C341.2,228.4 342.8,222.4 344,216.4 L343.6,216.4 C351.6,184.4 360.4,152 360.4,152 C383.2,37.2 297.6,70.8 297.6,70.8 Z" id="Fill-12" fill="#4A4A4A"></path>
        <path d="M226,279.2 C232.8,286.8 242.8,292 254,292 C265.2,292 275.2,287.2 282,279.2 L226,279.2" id="Fill-15" fill="#FFF8EA"></path>
    </g>
</svg>